# Blender v2.93.4 OBJ File: 'mezanino_combinado.blend'
# www.blender.org
o Stairs_Cube.002
v 7.576936 0.089936 2.482080
v 7.576936 0.196992 2.482080
v 7.576936 0.089936 1.484826
v 7.576936 0.196992 1.484826
v 11.696526 0.089936 2.482080
v 11.696526 0.196992 2.482080
v 11.696526 0.089936 1.484826
v 11.696526 0.196992 1.484826
v 7.576936 0.484780 3.504029
v 7.576936 0.591836 3.504029
v 7.576936 0.484780 2.506774
v 7.576936 0.591836 2.506774
v 11.696526 0.484780 3.504029
v 11.696526 0.591836 3.504029
v 11.696526 0.484780 2.506774
v 11.696526 0.591836 2.506774
v 7.576936 0.949302 4.479525
v 7.576936 1.056358 4.479525
v 7.576936 0.949302 3.482270
v 7.576936 1.056358 3.482270
v 11.696526 0.949302 4.479525
v 11.696526 1.056358 4.479525
v 11.696526 0.949302 3.482270
v 11.696526 1.056358 3.482270
v 7.576936 1.460276 5.501473
v 7.576936 1.567333 5.501473
v 7.576936 1.460276 4.504219
v 7.576936 1.567333 4.504219
v 11.696526 1.460276 5.501473
v 11.696526 1.567333 5.501473
v 11.696526 1.460276 4.504219
v 11.696526 1.567333 4.504219
v 7.576936 1.901572 6.500196
v 7.576936 2.008629 6.500196
v 7.576936 1.901572 5.502942
v 7.576936 2.008629 5.502942
v 11.696526 1.901572 6.500196
v 11.696526 2.008629 6.500196
v 11.696526 1.901572 5.502942
v 11.696526 2.008629 5.502942
v 7.576936 2.482225 7.498919
v 7.576936 2.589281 7.498919
v 7.576936 2.482225 6.501665
v 7.576936 2.589281 6.501665
v 11.696526 2.482225 7.498919
v 11.696526 2.589281 7.498919
v 11.696526 2.482225 6.501665
v 11.696526 2.589281 6.501665
v 7.576936 2.923521 11.661615
v 7.576936 3.030577 11.661615
v 7.576936 2.923521 7.541615
v 7.576936 3.030577 7.541615
v 11.696526 2.923521 11.661615
v 11.696526 3.030577 11.661615
v 11.696526 2.923521 7.541615
v 11.696526 3.030577 7.541615
v 7.511302 3.440963 11.700610
v 7.511302 3.548020 11.700610
v 6.514048 3.440963 11.700610
v 6.514048 3.548020 11.700610
v 7.511302 3.440963 7.581020
v 7.511302 3.548020 7.581020
v 6.514048 3.440963 7.581020
v 6.514048 3.548020 7.581020
v 6.480063 3.942647 11.700610
v 6.480063 4.049704 11.700610
v 5.482809 3.942647 11.700610
v 5.482809 4.049704 11.700610
v 6.480063 3.942647 7.581020
v 6.480063 4.049704 7.581020
v 5.482809 3.942647 7.581020
v 5.482809 4.049704 7.581020
v 5.504567 4.444331 11.700610
v 5.504567 4.551387 11.700610
v 4.507312 4.444331 11.700610
v 4.507312 4.551387 11.700610
v 5.504567 4.444331 7.581020
v 5.504567 4.551387 7.581020
v 4.507312 4.444331 7.581020
v 4.507312 4.551387 7.581020
v 4.501199 4.946015 11.700610
v 4.501199 5.053071 11.700610
v 3.503944 4.946015 11.700610
v 3.503944 5.053071 11.700610
v 4.501199 4.946015 7.581020
v 4.501199 5.053071 7.581020
v 3.503944 4.946015 7.581020
v 3.503944 5.053071 7.581020
v 3.497831 5.419827 11.700610
v 3.497831 5.526884 11.700610
v 2.500576 5.419827 11.700610
v 2.500576 5.526884 11.700610
v 3.497831 5.419827 7.581020
v 3.497831 5.526884 7.581020
v 2.500576 5.419827 7.581020
v 2.500576 5.526884 7.581020
vn -1.0000 0.0000 0.0000
vn 0.0000 0.0000 -1.0000
vn 1.0000 0.0000 0.0000
vn 0.0000 0.0000 1.0000
vn 0.0000 -1.0000 0.0000
vn 0.0000 1.0000 0.0000
s off
f 1//1 2//1 4//1 3//1
f 3//2 4//2 8//2 7//2
f 7//3 8//3 6//3 5//3
f 5//4 6//4 2//4 1//4
f 3//5 7//5 5//5 1//5
f 8//6 4//6 2//6 6//6
f 9//1 10//1 12//1 11//1
f 11//2 12//2 16//2 15//2
f 15//3 16//3 14//3 13//3
f 13//4 14//4 10//4 9//4
f 11//5 15//5 13//5 9//5
f 16//6 12//6 10//6 14//6
f 17//1 18//1 20//1 19//1
f 19//2 20//2 24//2 23//2
f 23//3 24//3 22//3 21//3
f 21//4 22//4 18//4 17//4
f 19//5 23//5 21//5 17//5
f 24//6 20//6 18//6 22//6
f 25//1 26//1 28//1 27//1
f 27//2 28//2 32//2 31//2
f 31//3 32//3 30//3 29//3
f 29//4 30//4 26//4 25//4
f 27//5 31//5 29//5 25//5
f 32//6 28//6 26//6 30//6
f 33//1 34//1 36//1 35//1
f 35//2 36//2 40//2 39//2
f 39//3 40//3 38//3 37//3
f 37//4 38//4 34//4 33//4
f 35//5 39//5 37//5 33//5
f 40//6 36//6 34//6 38//6
f 41//1 42//1 44//1 43//1
f 43//2 44//2 48//2 47//2
f 47//3 48//3 46//3 45//3
f 45//4 46//4 42//4 41//4
f 43//5 47//5 45//5 41//5
f 48//6 44//6 42//6 46//6
f 49//1 50//1 52//1 51//1
f 51//2 52//2 56//2 55//2
f 55//3 56//3 54//3 53//3
f 53//4 54//4 50//4 49//4
f 51//5 55//5 53//5 49//5
f 56//6 52//6 50//6 54//6
f 57//4 58//4 60//4 59//4
f 59//1 60//1 64//1 63//1
f 63//2 64//2 62//2 61//2
f 61//3 62//3 58//3 57//3
f 59//5 63//5 61//5 57//5
f 64//6 60//6 58//6 62//6
f 65//4 66//4 68//4 67//4
f 67//1 68//1 72//1 71//1
f 71//2 72//2 70//2 69//2
f 69//3 70//3 66//3 65//3
f 67//5 71//5 69//5 65//5
f 72//6 68//6 66//6 70//6
f 73//4 74//4 76//4 75//4
f 75//1 76//1 80//1 79//1
f 79//2 80//2 78//2 77//2
f 77//3 78//3 74//3 73//3
f 75//5 79//5 77//5 73//5
f 80//6 76//6 74//6 78//6
f 81//4 82//4 84//4 83//4
f 83//1 84//1 88//1 87//1
f 87//2 88//2 86//2 85//2
f 85//3 86//3 82//3 81//3
f 83//5 87//5 85//5 81//5
f 88//6 84//6 82//6 86//6
f 89//4 90//4 92//4 91//4
f 91//1 92//1 96//1 95//1
f 95//2 96//2 94//2 93//2
f 93//3 94//3 90//3 89//3
f 91//5 95//5 93//5 89//5
f 96//6 92//6 90//6 94//6
